<?xml version="1.0" encoding="utf-8"?>
<!-- Uploaded to: SVG Repo, www.svgrepo.com, Generator: SVG Repo Mixer Tools -->
<svg width="18px" height="18px" viewBox="0 0 1024 1024" class="icon"  version="1.1" xmlns="http://www.w3.org/2000/svg"><path d="M864 32H160a32 32 0 0 0-32 32v896a32 32 0 0 0 32 32h704a32 32 0 0 0 32-32V640a32 32 0 0 0-64 0v288H192V96h640v64a32 32 0 0 0 64 0V64a32 32 0 0 0-32-32z" fill="white" /><path d="M864 384a32 32 0 0 0-32 32v96a32 32 0 0 0 64 0v-96a32 32 0 0 0-32-32zM886.72 265.28a32 32 0 0 0-45.44 0 32 32 0 0 0-6.72 10.56A26.56 26.56 0 0 0 832 288a32 32 0 0 0 9.28 22.72 36.8 36.8 0 0 0 10.56 6.72 30.08 30.08 0 0 0 24.32 0 28.8 28.8 0 0 0 17.28-17.28 30.08 30.08 0 0 0 0-24.32 32 32 0 0 0-6.72-10.56zM608 160h-192a32 32 0 0 0-32 32v32H288a32 32 0 0 0-32 32v576a32 32 0 0 0 32 32h448a32 32 0 0 0 32-32V256a32 32 0 0 0-32-32h-96V192a32 32 0 0 0-32-32z m-160 64h128v64h-128z m256 64v512H320V288h64v32a32 32 0 0 0 32 32h192a32 32 0 0 0 32-32V288z" fill="white" /><path d="M608 416h-192a32 32 0 0 0 0 64h192a32 32 0 0 0 0-64zM608 544h-192a32 32 0 0 0 0 64h192a32 32 0 0 0 0-64zM608 672h-192a32 32 0 0 0 0 64h192a32 32 0 0 0 0-64z" fill="white" /></svg>