<?xml version="1.0" encoding="utf-8"?>
<!-- Uploaded to: SVG Repo, www.svgrepo.com, Generator: SVG Repo Mixer Tools -->
<svg width="18px" height="18px" viewBox="0 0 1024 1024" fill="#000000" class="icon"  version="1.1" xmlns="http://www.w3.org/2000/svg"><path d="M982.72 937.28a32 32 0 0 0-34.88-6.72 32 32 0 0 0-10.56 6.72A32 32 0 0 0 928 960a32 32 0 0 0 9.28 22.72 36.8 36.8 0 0 0 10.56 6.72 30.08 30.08 0 0 0 24.32 0 28.8 28.8 0 0 0 17.28-17.28A32 32 0 0 0 992 960a33.6 33.6 0 0 0-9.28-22.72zM822.72 777.28a32 32 0 0 0-45.12 45.12l64 64a32 32 0 0 0 45.12-45.12zM626.88 581.76a336.64 336.64 0 1 0-45.12 45.12l99.52 99.52a32 32 0 0 0 45.12-45.12zM368 640a272 272 0 1 1 272-272 272.32 272.32 0 0 1-272 272z" fill="" /></svg>