<?xml version="1.0" encoding="UTF-8" standalone="no"?>
<svg
   version="1.0"
   width="622.000000pt"
   height="401.000000pt"
   viewBox="0 0 622.000000 401.000000"
   preserveAspectRatio="xMidYMid meet"
   id="svg28"
   sodipodi:docname="_logo1-removebg-preview.svg"
   inkscape:version="1.2.2 (732a01da63, 2022-12-09)"
   xmlns:inkscape="http://www.inkscape.org/namespaces/inkscape"
   xmlns:sodipodi="http://sodipodi.sourceforge.net/DTD/sodipodi-0.dtd"
   xmlns="http://www.w3.org/2000/svg"
   xmlns:svg="http://www.w3.org/2000/svg">
  <defs
     id="defs32" />
  <sodipodi:namedview
     id="namedview30"
     pagecolor="#ffffff"
     bordercolor="#000000"
     borderopacity="0.25"
     inkscape:showpageshadow="2"
     inkscape:pageopacity="0.0"
     inkscape:pagecheckerboard="0"
     inkscape:deskcolor="#d1d1d1"
     inkscape:document-units="pt"
     showgrid="false"
     inkscape:zoom="1.4590032"
     inkscape:cx="306.71625"
     inkscape:cy="267.99118"
     inkscape:window-width="1920"
     inkscape:window-height="1017"
     inkscape:window-x="1912"
     inkscape:window-y="-8"
     inkscape:window-maximized="1"
     inkscape:current-layer="svg28" />
  <metadata
     id="metadata18">
Created by potrace 1.16, written by Peter Selinger 2001-2019
</metadata>
  <g
     transform="matrix(0.1,0,0,-0.1,2.570248,283.28264)"
     fill="#000000"
     stroke="none"
     id="g26"
     inkscape:transform-center-x="-0.51404959"
     inkscape:transform-center-y="0.51404959">
    <path
       d="m 2439,2054 c -100,-30 -195,-119 -221,-207 -10,-32 -13,-195 -13,-702 0,-655 0,-660 22,-707 32,-70 94,-131 166,-164 61,-29 64,-29 280,-32 l 218,-3 -3,93 -3,93 -223,5 -224,5 -33,36 -33,36 -3,281 -4,282 -53,53 -53,54 35,21 c 20,12 36,25 36,30 0,4 -20,48 -44,96 l -45,88 59,-4 58,-4 6,35 c 3,20 6,104 6,186 1,162 5,177 55,217 29,22 36,23 290,28 l 260,5 47,90 c 45,88 46,90 25,97 -12,3 -143,6 -292,6 -206,1 -281,-3 -316,-14 z"
       id="path20" />
    <path
       d="m 3276,2048 c -24,-39 -86,-161 -86,-170 0,-4 112,-8 249,-8 h 249 l 30,-25 c 51,-42 61,-86 58,-231 -2,-71 -1,-149 2,-173 l 5,-43 44,5 c 24,2 42,2 40,-2 -28,-53 -59,-127 -64,-154 -4,-28 -1,-36 21,-51 l 27,-17 -36,-44 -36,-43 -3,-287 c -3,-266 -5,-289 -23,-313 -41,-56 -68,-62 -300,-62 h -213 v -96 -95 l 228,3 c 221,3 228,4 283,29 76,36 129,86 165,156 l 29,58 v 670 670 l -35,64 c -40,75 -104,130 -185,160 -49,19 -78,21 -245,21 -186,0 -190,0 -204,-22 z"
       id="path22" />
    <path
       d="m 3025,1787 c -85,-203 -133,-246 -200,-177 -16,16 -30,29 -31,27 -2,-2 3,-27 12,-57 21,-80 85,-372 81,-376 -6,-7 -137,99 -223,179 l -91,86 -20,-62 -21,-62 -89,1 -89,2 30,-77 c 41,-101 73,-151 195,-304 l 103,-129 -12,-80 c -6,-44 -9,-82 -7,-84 2,-3 50,2 105,11 56,8 148,15 203,15 h 102 l -9,-272 c -13,-407 -13,-403 11,-403 20,0 20,8 23,337 l 2,338 h 66 c 76,0 244,-17 292,-30 39,-10 38,-12 13,103 l -19,87 62,78 c 122,152 212,297 241,390 l 7,24 -74,-7 -74,-7 -13,66 c -7,36 -17,68 -21,71 -5,3 -62,-41 -127,-97 -153,-133 -203,-172 -203,-160 0,6 16,89 35,186 19,97 35,188 35,202 v 26 l -31,-26 c -39,-33 -59,-33 -90,2 -39,41 -53,69 -89,167 -18,50 -35,93 -39,97 -4,5 -24,-34 -46,-85 z"
       id="path24" />
  </g>
  <path
     style="fill:#000080;stroke-width:0.685399"
     d="m 411.6557,372.80124 c -0.59165,-1.5418 -0.48479,-18.85829 0.24708,-40.03981 0.34517,-9.98969 0.84572,-25.07266 1.11234,-33.5177 l 0.48476,-15.35461 -15.69484,0.42218 c -9.55329,0.25698 -19.71791,0.96732 -25.97584,1.81528 -13.79764,1.86961 -13.34185,1.89868 -12.9997,-0.82906 0.15368,-1.22515 0.78972,-6.14219 1.41342,-10.92675 l 1.13401,-8.6992 -11.77215,-14.77112 C 337.5658,235.79454 329.0673,223.85 325.87193,217.54426 c -1.49327,-2.94684 -7.84659,-18.24303 -7.84659,-18.89139 0,-0.10855 5.30003,-0.28175 11.77785,-0.3849 l 11.77784,-0.18753 2.42085,-7.36804 c 1.33147,-4.05243 2.67113,-7.36805 2.97703,-7.36805 0.30589,0 4.01755,3.28041 8.24813,7.28979 12.06056,11.42997 31.00095,26.98019 32.86227,26.98019 0.42996,0 0.51065,-1.22056 0.21523,-3.25565 -0.65112,-4.4855 -7.40099,-35.25543 -9.93997,-45.31234 -1.14415,-4.53199 -2.08027,-8.45698 -2.08027,-8.7222 0,-0.26522 1.6549,1.08292 3.67755,2.99586 5.61339,5.30891 9.56937,5.41462 14.2315,0.38031 3.0271,-3.26875 5.43857,-7.60278 11.18877,-20.10913 6.20866,-13.50348 6.94794,-14.90225 7.55523,-14.29497 0.23633,0.23633 2.29038,5.32285 4.56457,11.30338 5.12946,13.4892 7.46287,17.92437 11.89755,22.61398 4.75703,5.03048 7.2237,5.04823 13.53992,0.0974 l 2.57025,-2.01462 v 2.36299 c 0,2.45912 -2.33468,15.91377 -6.48425,37.36842 -2.75523,14.24549 -2.78351,14.53034 -1.44274,14.53034 1.19681,0 8.60378,-5.81726 20.94958,-16.4533 11.55089,-9.95121 20.62603,-17.13128 21.65283,-17.13128 0.85256,0 2.46171,5.28186 3.75861,12.33719 0.45041,2.45031 1.00859,4.66061 1.24039,4.91179 0.23179,0.25117 4.57984,0.0402 9.66233,-0.46895 5.08249,-0.5091 9.32419,-0.84232 9.42602,-0.74049 0.52423,0.52423 -3.0441,9.08942 -6.63495,15.92608 -6.08567,11.58659 -14.71779,24.21114 -27.94386,40.86813 l -6.40263,8.0635 2.41843,11.2454 c 1.33013,6.18498 2.41842,11.8864 2.41842,12.66984 0,1.70365 -0.32412,1.7198 -8.05314,0.40129 -9.05528,-1.54476 -26.84368,-3.08926 -35.5798,-3.08926 -4.27461,0 -7.81408,0.0771 -7.86548,0.17135 -0.0514,0.0942 -0.32374,19.60243 -0.60516,43.35152 -0.28143,23.74909 -0.73799,43.87413 -1.01457,44.72231 -0.57756,1.77117 -2.7369,2.06603 -3.35397,0.45799 z"
     id="path261"
     transform="scale(0.75)" />
  <path
     style="fill:#550000;stroke-width:0.685399"
     d="m 411.94809,355.55096 c 0.0127,-9.70697 0.45065,-29.83097 0.9733,-44.71999 0.52265,-14.88904 0.87037,-27.15087 0.77272,-27.24852 -0.47564,-0.47564 -34.19288,1.34885 -41.29197,2.23436 -10.16114,1.26747 -13.25283,1.29958 -13.25283,0.13764 0,-1.27692 2.01326,-17.00848 2.39596,-18.72195 0.23951,-1.07237 -1.8739,-4.21494 -8.21057,-12.20888 -20.00928,-25.24241 -25.54314,-33.5003 -30.7605,-45.90229 -2.18551,-5.1951 -3.76912,-9.65036 -3.51913,-9.90057 0.25,-0.2502 5.49987,-0.56335 11.66638,-0.69587 l 11.21183,-0.24095 2.1636,-6.61305 c 1.18998,-3.63717 2.40715,-6.87126 2.70482,-7.18687 0.29768,-0.31561 4.50849,3.05362 9.35737,7.48719 15.00053,13.71572 29.75873,25.64312 31.72916,25.64312 0.40329,0 0.73326,-0.76509 0.73326,-1.70019 0,-2.1625 -4.45004,-23.45757 -8.51776,-40.76066 -1.72372,-7.33225 -3.13403,-13.44439 -3.13403,-13.58253 0,-0.13813 1.31082,0.80823 2.91294,2.10303 5.68966,4.59825 8.38231,5.01683 12.57706,1.95513 3.35636,-2.44977 7.38356,-9.26331 14.34227,-24.26547 2.92884,-6.31425 5.51103,-11.47761 5.73818,-11.47415 0.22717,0.003 2.38259,5.01545 4.78983,11.13775 5.01622,12.7576 7.47408,17.45254 11.32693,21.6364 5.1144,5.55381 7.45183,5.87036 13.19515,1.78701 1.78546,-1.26942 3.32573,-2.22861 3.4228,-2.13153 0.33765,0.33765 -1.7982,13.25724 -5.22615,31.61258 -1.89709,10.15819 -3.44926,19.17976 -3.44926,20.04794 0,3.39031 2.9677,1.57161 17.47768,-10.71088 15.14079,-12.81644 25.13116,-20.68592 25.93437,-20.42866 0.43792,0.14026 1.7215,3.84562 2.85241,8.23414 1.13091,4.38851 2.25325,8.16289 2.4941,8.38749 0.24084,0.2246 4.35079,0.0546 9.13322,-0.37767 4.78243,-0.43232 8.8716,-0.60975 9.08705,-0.3943 0.61182,0.61182 -3.64611,10.3388 -7.83409,17.89647 -4.90478,8.8512 -14.2084,22.50749 -22.41326,32.89917 -3.57168,4.52364 -7.33825,9.40057 -8.37016,10.83762 l -1.87619,2.61283 2.18474,10.75246 c 1.2016,5.91386 2.18211,11.48958 2.17892,12.3905 -0.007,1.85973 0.52468,1.86884 -15.0846,-0.25845 -4.33516,-0.5908 -14.2341,-1.26451 -21.99766,-1.49712 l -14.11556,-0.42292 -0.45942,38.3099 c -0.25267,21.07044 -0.65127,41.16287 -0.88577,44.64984 -0.37493,5.57501 -0.58043,6.33994 -1.70327,6.33994 -1.21313,0 -1.27574,-0.88134 -1.25387,-17.64904 z"
     id="path332"
     transform="scale(0.75)" />
  <path
     style="fill:#000080;stroke-width:0.685399"
     d="m 358.80661,345.07175 c -15.12033,-0.28544 -26.00133,-0.7833 -28.10138,-1.28578 -15.24412,-3.64745 -29.78992,-18.25595 -32.05025,-32.18839 -0.96499,-5.94812 -0.90052,-162.48538 0.0713,-173.05644 0.92239,-10.03354 3.0804,-14.48117 10.68578,-22.02323 6.23269,-6.18079 12.1897,-9.95493 19.23701,-12.18783 4.71626,-1.49433 5.44654,-1.52016 42.97433,-1.52016 30.18445,0 38.36098,0.1844 39.0576,0.88085 0.71779,0.71762 -0.18098,2.95571 -4.85005,12.07727 l -5.73112,11.19641 -4.1262,0.43127 c -2.26941,0.2372 -10.01823,0.44203 -17.2196,0.45518 -22.2443,0.0406 -46.57825,1.14332 -49.16714,2.22806 -3.60593,1.51087 -6.8442,4.61237 -8.35946,8.00639 -1.24557,2.78993 -1.46893,5.5403 -2.18916,26.95623 -0.44113,13.11711 -1.08535,24.13258 -1.43159,24.47882 -0.36784,0.36784 -3.68822,0.42007 -7.98751,0.12565 -4.04689,-0.27714 -7.35798,-0.29196 -7.35798,-0.0329 0,0.25903 2.61665,5.7915 5.81478,12.2944 4.45143,9.05126 5.63648,12.03828 5.0543,12.73976 -0.41826,0.50398 -2.57227,2.01693 -4.78668,3.36211 -2.21441,1.34519 -4.0262,2.6603 -4.0262,2.92246 0,0.26218 3.18925,3.65507 7.08722,7.53978 l 7.08722,7.0631 0.47899,37.39277 0.47899,37.39277 4.15765,4.67811 c 3.60853,4.06023 4.53286,4.72502 6.99852,5.03337 1.56249,0.1954 15.10096,0.554 30.08551,0.79689 l 27.24463,0.44161 v 5.983 c 0,3.29065 0.2004,8.80625 0.44533,12.2569 l 0.44534,6.27388 -2.67289,-0.12323 c -1.47008,-0.0678 -13.77635,-0.33284 -27.34726,-0.58904 z"
     id="path541"
     transform="scale(0.75)" />
  <path
     style="fill:#0c3646;stroke-width:0.685399;fill-opacity:1"
     d="m 435.91405,333.03963 v -12.61539 l 25.53113,-0.005 c 26.34007,-0.005 32.36661,-0.45416 36.8567,-2.74483 3.64684,-1.86048 6.63353,-5.76589 7.55313,-9.87649 0.48515,-2.16863 0.96935,-16.93097 1.28469,-39.16767 0.27834,-19.628 0.77414,-36.12899 1.10176,-36.66887 0.32763,-0.53987 2.55564,-3.35791 4.95114,-6.26229 l 4.35544,-5.28069 -2.61604,-1.65143 c -4.30906,-2.72019 -4.68206,-3.46657 -3.81005,-7.62392 0.41752,-1.99051 2.34661,-7.13179 4.28688,-11.42507 1.94027,-4.29328 3.71389,-8.24098 3.94138,-8.77267 0.34507,-0.80649 -0.55602,-0.89828 -5.43704,-0.55382 l -5.85066,0.41289 -0.4275,-3.55858 c -0.23513,-1.95691 -0.43252,-11.42323 -0.43864,-21.03595 -0.016,-25.14167 -0.77222,-28.44099 -7.99395,-34.87761 l -3.93225,-3.50476 -29.50671,-0.006 c -16.22869,-0.003 -31.12002,-0.19975 -33.09183,-0.4366 l -3.58513,-0.43065 5.48913,-10.70114 c 3.01902,-5.88562 5.9276,-11.27857 6.46351,-11.98432 0.74869,-0.98596 2.45086,-1.4388 7.34889,-1.95506 7.87709,-0.83026 40.64254,-0.21937 45.78497,0.85363 6.0265,1.25746 15.56083,6.22314 20.42569,10.63814 4.48981,4.07462 7.71413,8.42236 12.00626,16.18952 l 2.52342,4.56647 v 89.25044 89.25045 l -3.25564,6.25141 c -5.96672,11.45714 -17.39545,21.06532 -28.64533,24.08225 -3.06031,0.8207 -8.54439,1.17241 -21.90288,1.40467 -9.80121,0.17043 -22.67816,0.43246 -28.61543,0.58231 l -10.79504,0.27246 z"
     id="path543"
     transform="scale(0.75)" />
  <path
     style="fill:#0c3646;fill-opacity:1;stroke-width:0.685399"
     d="m 345.78402,344.3876 c -7.35091,-0.26941 -14.75322,-0.86506 -16.44958,-1.32367 -6.50884,-1.75969 -12.44841,-5.53038 -18.86101,-11.97378 -7.03401,-7.06779 -10.27178,-12.70036 -11.3754,-19.78914 -0.4207,-2.70223 -0.58563,-36.26759 -0.44201,-89.95137 0.21239,-79.38347 0.31739,-85.94051 1.43724,-89.74617 1.68945,-5.74139 4.45926,-9.73066 11.16011,-16.07358 6.65354,-6.29813 14.47411,-10.62295 21.16536,-11.70458 4.46594,-0.7219 71.01741,-0.92784 75.22259,-0.23277 1.82711,0.302 2.57025,0.77104 2.57025,1.62221 0,1.70442 -9.82619,20.58974 -11.07732,21.2899 -0.57221,0.32023 -10.57399,0.76404 -22.22616,0.98625 -29.1322,0.55556 -44.92968,1.48281 -48.31078,2.83566 -3.30936,1.32415 -7.26334,5.77377 -8.19059,9.21732 -0.50271,1.8669 -2.65945,40.92338 -2.7174,49.20938 -0.005,0.7785 -1.39426,0.88804 -7.55625,0.59598 -4.15227,-0.19681 -7.68581,-0.13741 -7.85232,0.13201 -0.16651,0.26941 1.9736,5.24452 4.7558,11.05581 6.96627,14.55075 6.87786,13.50387 1.4397,17.04697 -2.47588,1.6131 -4.50159,3.13351 -4.50159,3.3787 0,0.24518 3.19382,3.62874 7.09739,7.51903 l 7.0974,7.07325 0.50343,37.44331 0.50343,37.44333 3.4608,3.99484 c 1.90343,2.19716 4.34593,4.45257 5.42777,5.01201 1.58683,0.82058 7.47034,1.13079 30.44253,1.6051 15.66155,0.32336 28.57034,0.69958 28.68621,0.83604 0.11586,0.13646 0.41397,5.4143 0.66246,11.72854 l 0.4518,11.48044 -14.57929,-0.11059 c -8.0186,-0.0608 -20.59366,-0.33102 -27.94457,-0.60043 z"
     id="path3469"
     transform="scale(0.75)" />
  <path
     style="fill:#9b1f35;fill-opacity:1;stroke-width:0.685399"
     d="M 436.25675,332.90084 V 320.5296 l 28.61543,-0.28131 c 21.38307,-0.21022 29.25833,-0.51039 31.15914,-1.18764 3.71215,-1.32263 7.05535,-4.35686 8.82238,-8.00705 1.67485,-3.45977 1.55174,-0.97149 3.11792,-63.02331 l 0.40001,-15.84849 4.70679,-5.74159 c 2.58873,-3.15787 4.71207,-5.8958 4.71854,-6.08429 0.006,-0.18848 -1.23423,-1.05431 -2.75711,-1.92405 -3.91698,-2.23706 -4.4829,-3.8599 -3.05676,-8.76565 0.63959,-2.20011 2.67703,-7.38252 4.52764,-11.51646 1.85062,-4.13394 3.36475,-7.61416 3.36475,-7.73383 0,-0.11967 -2.62165,-0.21758 -5.82589,-0.21758 -3.20425,0 -5.86105,-0.0771 -5.90401,-0.17135 -0.043,-0.0942 -0.32198,-10.50375 -0.62004,-23.13223 -0.65282,-27.6587 -0.77105,-28.23826 -7.06549,-34.6339 l -4.23085,-4.29886 -33.12851,-0.49415 c -31.44721,-0.46907 -33.11212,-0.55684 -32.80546,-1.72951 0.81067,-3.09999 10.98154,-21.29114 12.33796,-22.0671 1.13373,-0.64857 7.51601,-0.85452 25.83733,-0.83374 23.53888,0.0267 24.47685,0.0786 28.78678,1.59171 8.90875,3.12774 17.24111,8.74901 21.87851,14.75994 1.52979,1.98288 4.3266,6.20262 6.21515,9.37719 l 3.43372,5.77194 4.9e-4,89.36329 5e-4,89.3633 -2.91294,5.56453 c -4.29585,8.20626 -13.83132,17.66392 -21.76144,21.58388 -7.39247,3.6542 -10.06416,3.93853 -43.00881,4.57716 l -24.84573,0.48162 z"
     id="path4197"
     transform="scale(0.75)" />
  <path
     style="fill:#89182a;fill-opacity:1;stroke-width:0.68533333;stroke-dasharray:none;stroke:#000000;stroke-opacity:1"
     d="m 412.73612,372.06909 c -0.88972,-0.88972 -0.25656,-47.77087 1.12101,-83.00187 l 0.2211,-5.65455 -6.21708,0.011 c -3.41939,0.006 -12.84831,0.48368 -20.95316,1.06146 -8.10485,0.57779 -17.63559,1.23417 -21.17943,1.45864 l -6.44335,0.40814 0.39329,-2.66905 c 1.69869,-11.52815 2.0885,-17.42915 1.2543,-18.98787 -0.4778,-0.89277 -5.17673,-7.14758 -10.44208,-13.89958 -12.0078,-15.39817 -18.02314,-23.78642 -22.07432,-30.78216 -3.18491,-5.49982 -8.67756,-18.11802 -8.67756,-19.93486 0,-0.74815 1.15089,-0.96982 5.0352,-0.96982 2.76937,0 7.84817,-0.19967 11.28623,-0.44371 l 6.25102,-0.44371 2.13558,-6.41028 c 1.17458,-3.52566 2.4957,-6.40775 2.93582,-6.40464 0.44013,0.003 4.6556,3.43324 9.36772,7.6225 18.51367,16.45941 28.74054,24.58563 30.94107,24.58563 0.82827,0 1.27271,-0.49323 1.27271,-1.41242 0,-1.98946 -3.61766,-19.59349 -7.59441,-36.95552 -1.85459,-8.0969 -3.37198,-15.09282 -3.37198,-15.54648 0,-0.45366 1.57314,0.23381 3.49587,1.52771 6.07029,4.085 10.64504,2.88829 15.20171,-3.97663 2.08924,-3.14757 9.95858,-18.38127 14.53468,-28.13666 0.66944,-1.42711 1.3003,-2.50661 1.40192,-2.39889 0.10161,0.10772 1.94896,4.51387 4.10522,9.79145 6.86617,16.80542 10.94926,23.38548 16.19431,26.0978 2.76851,1.43165 4.01385,1.22846 8.30386,-1.35484 l 3.86987,-2.33032 -0.3022,1.81627 c -0.16621,0.99895 -1.98221,11.37759 -4.03556,23.06365 -5.11711,29.12259 -4.95323,27.75868 -3.33526,27.75868 1.97382,0 6.11157,-2.99322 18.99299,-13.73942 18.71139,-15.60978 23.04351,-18.84271 23.75135,-17.72492 0.56797,0.89691 1.07331,2.51983 3.78947,12.16993 l 1.03198,3.66648 9.23701,-0.49473 9.23702,-0.49473 -1.45015,3.67905 c -4.65246,11.80336 -14.32465,27.27202 -29.69814,47.49596 -5.13503,6.75517 -9.33404,12.61534 -9.33112,13.02259 0.003,0.40724 0.92821,5.49482 2.05619,11.30572 1.128,5.8109 2.0509,10.9771 2.0509,11.48044 0,1.2003 -3.30854,1.18187 -12.38923,-0.069 -3.92956,-0.5413 -11.15424,-1.16281 -16.05484,-1.38111 -4.90061,-0.21831 -12.0716,-0.56712 -15.93554,-0.77515 l -7.02534,-0.37822 -0.0378,19.06568 c -0.0583,29.37696 -1.08167,68.77998 -1.8052,69.5035 -0.35599,0.356 -0.85803,0.43651 -1.11563,0.17892 z"
     id="path4994"
     transform="scale(0.75)" />
  <path
     style="fill:#0a3543;fill-opacity:1;stroke-width:0.685399"
     d="m 436.25675,333.07814 c 0,-6.58267 0.0771,-11.99424 0.17135,-12.0257 0.0942,-0.0315 13.27961,-0.29028 29.30083,-0.57514 23.58564,-0.41936 29.58602,-0.71465 31.52837,-1.55152 2.71471,-1.16965 7.23926,-5.87123 8.32143,-8.64701 0.8735,-2.24056 1.71119,-19.55848 2.26101,-46.74268 0.22492,-11.12061 0.58555,-22.76769 0.80139,-25.88241 l 0.39244,-5.66313 4.39286,-5.44084 c 2.41607,-2.99246 4.39285,-5.70509 4.39285,-6.02807 0,-0.32298 -1.38793,-1.56554 -3.08429,-2.76125 -4.41245,-3.11018 -4.18463,-5.07052 2.32068,-19.9695 1.5509,-3.55197 2.81981,-6.71337 2.81981,-7.02534 0,-0.31196 -1.19067,-0.5672 -2.64593,-0.5672 -1.45527,0 -4.0181,-0.18808 -5.69519,-0.41795 l -3.04926,-0.41795 -0.75671,-23.05698 c -0.89009,-27.1207 -1.02446,-27.78578 -6.91813,-34.24279 l -3.95388,-4.3318 -32.77073,-0.59513 c -18.02391,-0.32732 -32.95257,-0.77696 -33.1748,-0.99919 -0.54812,-0.54812 2.5521,-6.79462 7.56184,-15.23604 l 4.14728,-6.98818 3.50103,-0.43444 c 1.92557,-0.23894 13.52501,-0.33107 25.77652,-0.20474 l 22.27548,0.22969 4.7978,1.9678 c 2.63879,1.08229 7.37447,3.6661 10.52375,5.74181 6.27635,4.13678 9.60444,7.92709 15.65312,17.82702 l 3.638,5.95436 -3e-5,88.77416 -4e-5,88.77415 -3.25561,5.79265 c -3.75529,6.68171 -12.09103,15.65285 -18.06944,19.44679 -8.47846,5.38047 -13.94665,6.08125 -53.89746,6.90724 l -17.30634,0.35781 z"
     id="path5791"
     transform="scale(0.75)" />
</svg>
